<?xml version="1.0" encoding="utf-8"?>
<!-- Generator: Adobe Illustrator 23.1.1, SVG Export Plug-In . SVG Version: 6.00 Build 0)  -->
<svg version="1.1" id="Layer_1" xmlns="http://www.w3.org/2000/svg" xmlns:xlink="http://www.w3.org/1999/xlink" x="0px" y="0px"
	 viewBox="0 0 70.87 70.87" style="enable-background:new 0 0 70.87 70.87;" xml:space="preserve">
<style type="text/css">
	.st0{fill:#0034E3;}
</style>
<g>
	<g>
		<path class="st0" d="M28.94,33.17c0,0,6.37-0.47,6.37-7.94S30.1,14.11,23.5,14.11H1.77v41.75h21.72c0,0,13.26,0.42,13.26-12.32
			C36.75,43.54,37.33,33.17,28.94,33.17L28.94,33.17z M21.93,21.53h1.56c0,0,2.95,0,2.95,4.34s-1.74,4.97-3.71,4.97h-11.4v-9.32
			h10.6V21.53z M22.88,48.44H11.34V37.28h12.15c0,0,4.4-0.06,4.4,5.73C27.89,47.9,24.61,48.4,22.88,48.44L22.88,48.44z M54.44,24.73
			c-16.05,0-16.04,16.04-16.04,16.04s-1.1,15.96,16.04,15.96c0,0,14.28,0.82,14.28-11.1h-7.35c0,0,0.25,4.49-6.69,4.49
			c0,0-7.35,0.49-7.35-7.26h21.63C68.97,42.86,71.34,24.73,54.44,24.73L54.44,24.73z M47.26,37.28c0,0,0.9-6.43,7.35-6.43
			s6.37,6.43,6.37,6.43H47.26z M62.68,21.71H45.46v-5.14h17.22V21.71z"/>
	</g>
</g>
</svg>
