<?xml version="1.0" encoding="utf-8"?>
<!-- Generator: Adobe Illustrator 23.1.1, SVG Export Plug-In . SVG Version: 6.00 Build 0)  -->
<svg version="1.1" id="Layer_1" xmlns="http://www.w3.org/2000/svg" xmlns:xlink="http://www.w3.org/1999/xlink" x="0px" y="0px"
	 viewBox="0 0 70.87 70.87" style="enable-background:new 0 0 70.87 70.87;" xml:space="preserve">
<style type="text/css">
	.st0{fill:#0034E3;}
</style>
<g>
	<path class="st0" d="M35.43,3.53c-8.66,0-9.75,0.04-13.15,0.19s-5.71,0.69-7.74,1.48c-2.1,0.82-3.88,1.91-5.65,3.68
		s-2.86,3.55-3.68,5.65c-0.79,2.03-1.33,4.35-1.48,7.74c-0.16,3.4-0.19,4.49-0.19,13.15s0.04,9.75,0.19,13.15s0.69,5.71,1.48,7.74
		c0.82,2.1,1.91,3.88,3.68,5.65s3.55,2.86,5.65,3.68c2.03,0.79,4.35,1.33,7.74,1.48c3.4,0.16,4.49,0.19,13.15,0.19
		s9.75-0.04,13.15-0.19s5.71-0.69,7.74-1.48c2.1-0.82,3.88-1.91,5.65-3.68s2.86-3.55,3.68-5.65c0.79-2.03,1.33-4.35,1.48-7.74
		c0.16-3.4,0.19-4.49,0.19-13.15s-0.04-9.75-0.19-13.15s-0.69-5.71-1.48-7.74c-0.82-2.1-1.91-3.88-3.68-5.65s-3.55-2.86-5.65-3.68
		c-2.03-0.79-4.35-1.33-7.74-1.48C45.18,3.57,44.1,3.53,35.43,3.53L35.43,3.53L35.43,3.53z M35.43,9.28c8.52,0,9.53,0.03,12.89,0.19
		c3.11,0.14,4.8,0.66,5.92,1.1c1.49,0.58,2.55,1.27,3.67,2.39s1.81,2.18,2.39,3.67c0.44,1.12,0.96,2.81,1.1,5.92
		c0.15,3.36,0.19,4.37,0.19,12.89s-0.03,9.53-0.19,12.89c-0.14,3.11-0.66,4.8-1.1,5.92c-0.58,1.49-1.27,2.55-2.39,3.67
		s-2.18,1.81-3.67,2.39c-1.12,0.44-2.81,0.96-5.92,1.1c-3.36,0.15-4.37,0.19-12.89,0.19s-9.53-0.03-12.89-0.19
		c-3.11-0.14-4.8-0.66-5.92-1.1c-1.49-0.58-2.55-1.27-3.67-2.39s-1.81-2.18-2.39-3.67c-0.44-1.12-0.96-2.81-1.1-5.92
		c-0.15-3.36-0.19-4.37-0.19-12.89s0.03-9.53,0.19-12.89c0.14-3.11,0.66-4.8,1.1-5.92c0.58-1.49,1.27-2.55,2.39-3.67
		s2.18-1.81,3.67-2.39c1.12-0.44,2.81-0.96,5.92-1.1C25.91,9.31,26.92,9.28,35.43,9.28"/>
	<path class="st0" d="M35.43,46.07c-5.87,0-10.63-4.76-10.63-10.63s4.76-10.63,10.63-10.63s10.63,4.76,10.63,10.63
		C46.07,41.31,41.31,46.07,35.43,46.07L35.43,46.07z M35.43,19.05c-9.05,0-16.38,7.33-16.38,16.38s7.33,16.38,16.38,16.38
		s16.38-7.33,16.38-16.38C51.81,26.39,44.48,19.05,35.43,19.05L35.43,19.05z"/>
	<path class="st0" d="M56.29,18.4c0,2.11-1.71,3.83-3.83,3.83c-2.11,0-3.83-1.71-3.83-3.83s1.71-3.83,3.83-3.83
		C54.58,14.58,56.29,16.29,56.29,18.4L56.29,18.4z"/>
</g>
</svg>
