<?xml version="1.0" encoding="utf-8"?>
<!-- Generator: Adobe Illustrator 23.1.1, SVG Export Plug-In . SVG Version: 6.00 Build 0)  -->
<svg version="1.1" id="Layer_1" xmlns="http://www.w3.org/2000/svg" xmlns:xlink="http://www.w3.org/1999/xlink" x="0px" y="0px"
	 viewBox="0 0 70.87 70.87" style="enable-background:new 0 0 70.87 70.87;" xml:space="preserve">
<style type="text/css">
	.st0{fill:#0034E3;}
</style>
<g>
	<g>
		<path class="st0" d="M1.32,10.59c0-2.18,0.76-3.98,2.29-5.39c1.52-1.42,3.51-2.12,5.95-2.12c2.4,0,4.34,0.7,5.82,2.09
			c1.52,1.44,2.29,3.31,2.29,5.62c0,2.09-0.74,3.83-2.22,5.23c-1.52,1.44-3.53,2.16-6.01,2.16H9.35c-2.4,0-4.34-0.72-5.82-2.16
			C2.06,14.57,1.32,12.76,1.32,10.59L1.32,10.59z M2.16,67.77V24.11h14.51v43.66C16.67,67.77,2.16,67.77,2.16,67.77z M24.71,67.77
			h14.51V43.39c0-1.52,0.17-2.7,0.52-3.53c0.61-1.48,1.54-2.73,2.78-3.76c1.24-1.02,2.8-1.54,4.67-1.54c4.88,0,7.32,3.29,7.32,9.87
			v23.33h14.51V42.74c0-6.45-1.52-11.34-4.57-14.67c-3.05-3.33-7.08-5-12.09-5c-5.62,0-10,2.42-13.14,7.25v0.13h-0.07l0.07-0.13
			v-6.21H24.71c0.09,1.39,0.13,5.73,0.13,13.01S24.8,54.61,24.71,67.77L24.71,67.77z"/>
	</g>
</g>
</svg>
