<?xml version="1.0" encoding="utf-8"?>
<!-- Generator: Adobe Illustrator 23.1.1, SVG Export Plug-In . SVG Version: 6.00 Build 0)  -->
<svg version="1.1" id="Layer_1" xmlns="http://www.w3.org/2000/svg" xmlns:xlink="http://www.w3.org/1999/xlink" x="0px" y="0px"
	 viewBox="0 0 113.83 102.39" style="enable-background:new 0 0 113.83 102.39;" xml:space="preserve">
<style type="text/css">
	.st0{fill:none;stroke:#0034E3;stroke-width:3;stroke-linecap:round;stroke-linejoin:round;}
	.st1{fill:none;stroke:#0034E3;stroke-width:3;stroke-miterlimit:10;}
</style>
<title>work-expercience-icon</title>
<path class="st0" d="M63.51,74.91l48.81-7.08c-0.07-16.35-0.14-32.68-0.23-49L1.6,18.99L1.5,67.71l47.83,7.24"/>
<path class="st1" d="M32.04,17.56c0-3,0-5.56,0-7.85c-0.1-1.25,0.13-2.5,0.68-3.63c0.39-0.72,0.87-1.39,1.42-2
	c0.67-0.73,1.45-1.35,2.3-1.86c0.99-0.41,2.03-0.65,3.1-0.7c11.42,0,22.84,0,34.26,0c0.99-0.07,1.98,0.1,2.89,0.5
	c1.11,0.49,2.12,1.16,3,2c0.44,0.45,0.84,0.94,1.18,1.47c0.48,0.93,0.74,1.95,0.76,3c0.14,4.09,0.07,9.16,0.07,9.16"/>
<path class="st0" d="M39.65,17.21v-8h34.22c0,2.74,0,5.47,0,8.21"/>
<polyline class="st0" points="5.08,69.07 5.08,100.89 108.6,100.89 108.6,69.07 "/>
<path class="st0" d="M54.72,66.44h4.23c1.96,0,3.54,1.58,3.54,3.54v11.93c0,1.96-1.58,3.54-3.54,3.54h-4.23
	c-1.96,0-3.54-1.58-3.54-3.54V69.98C51.18,68.02,52.76,66.44,54.72,66.44z"/>
</svg>
