<?xml version="1.0" encoding="utf-8"?>
<!-- Generator: Adobe Illustrator 23.1.1, SVG Export Plug-In . SVG Version: 6.00 Build 0)  -->
<svg version="1.1" id="Layer_1" xmlns="http://www.w3.org/2000/svg" xmlns:xlink="http://www.w3.org/1999/xlink" x="0px" y="0px"
	 viewBox="0 0 70.87 70.87" style="enable-background:new 0 0 70.87 70.87;" xml:space="preserve">
<style type="text/css">
	.st0{fill:none;stroke:#0034E3;stroke-width:0.5;stroke-linecap:round;stroke-linejoin:round;stroke-miterlimit:10;}
</style>
<g>
	<path class="st0" d="M50.75,41.76v22.75c11.4,0.73,19.25-6.3,19.23-11.45c-0.02-3.81-4.34-8.6-11.19-10.52
		C56.39,41.88,53.69,41.56,50.75,41.76z"/>
	<path class="st0" d="M5.88,43.7"/>
	<path class="st0" d="M10.14,19.44l6.06,4.72c0.74-1.03,6.8-9.12,17.63-9.6C45.89,14.03,54.47,23.9,55,24.64
		c2.55-1.57,4.24-2.6,6.79-4.17c-0.76-1.06-10.82-14.64-27.1-14.16C19.57,6.76,11.1,18.11,10.14,19.44z"/>
	<path class="st0" d="M6.43,45.49c0.01-2.74,0.46-8.03,1.86-12.46c1.55-4.91,3.63-8.57,5.34-10.89"/>
	<path class="st0" d="M65.72,46.01c-0.19-2.67-0.81-8.66-1.78-12.19c-1.38-5.02-3.45-7.78-5.54-10.9"/>
	<line class="st0" x1="58.99" y1="63.64" x2="59.14" y2="42.65"/>
	<path class="st0" d="M21.03,41.49v22.75C9.91,64.97,2.25,57.94,2.27,52.79c0.02-3.81,4.23-8.6,10.92-10.52
		C15.53,41.6,18.17,41.29,21.03,41.49z"/>
	<line class="st0" x1="12.99" y1="63.36" x2="13.19" y2="42.27"/>
</g>
</svg>
