<?xml version="1.0" encoding="utf-8"?>
<!-- Generator: Adobe Illustrator 23.1.1, SVG Export Plug-In . SVG Version: 6.00 Build 0)  -->
<svg version="1.1" id="Layer_1" xmlns="http://www.w3.org/2000/svg" xmlns:xlink="http://www.w3.org/1999/xlink" x="0px" y="0px"
	 viewBox="0 0 70.87 70.87" style="enable-background:new 0 0 70.87 70.87;" xml:space="preserve">
<style type="text/css">
	.st0{fill:none;stroke:#0034E3;stroke-width:0.5;stroke-linecap:round;stroke-linejoin:round;stroke-miterlimit:10;}
</style>
<g>
	<path class="st0" d="M1.45,26.67c0.99,0.1,4.27,0.3,7.41-1.84c2-1.37,3.05-3.08,3.54-4.03c0.38,0.79,1.15,2.14,2.59,3.33
		c0.76,0.62,2.49,2.06,4.99,2.08c2.27,0.01,3.85-1.11,4.74-1.75c2.63-1.87,3.66-4.51,4.03-5.67c0,0.56,0.04,3.1,2.02,5.17
		c1.94,2.03,4.4,2.21,5.19,2.25c2.58,0.14,4.43-1,5.15-1.46c2.29-1.46,3.3-3.51,3.65-4.34c0.19,0.72,0.76,2.55,2.49,4.08
		c0.45,0.4,2.35,1.99,5.25,2.04c3.31,0.05,5.45-1.96,5.88-2.39c2.14-2.11,2.4-4.68,2.45-5.35c0.07,0.6,0.52,4.07,3.59,6.31
		c2.03,1.47,4.14,1.64,5,1.67"/>
	<path class="st0" d="M1.45,38.75c1.17,0.08,4.31,0.14,7.41-1.84c1.82-1.17,2.93-2.59,3.54-3.53c0.47,0.73,1.29,1.82,2.59,2.82
		c0.99,0.76,2.68,2.05,4.99,2.08c1.94,0.02,3.35-0.87,4.74-1.75c1.91-1.21,3.13-2.64,3.82-3.59c0.33,0.75,0.98,1.97,2.22,3.09
		c0.55,0.5,2.38,2.1,5.19,2.25c2.58,0.14,4.43-1,5.15-1.46c2.29-1.46,3.3-3.51,3.65-4.34c0.19,0.72,0.76,2.55,2.49,4.08
		c0.45,0.4,2.35,1.99,5.25,2.04c3.04,0.05,5.07-1.7,5.88-2.39c1.59-1.36,2.4-2.9,2.78-3.78c0.19,0.71,0.93,3.04,3.27,4.75
		c2.08,1.52,4.22,1.65,5,1.67"/>
	<path class="st0" d="M1.45,52c1.05,0.09,4.29,0.25,7.41-1.84c1.91-1.28,2.98-2.86,3.51-3.81c0.44,0.79,1.25,2.01,2.63,3.1
		c0.87,0.69,2.58,2.06,4.99,2.08c2.27,0.01,3.85-1.11,4.74-1.75c2.63-1.87,3.66-4.51,4.03-5.67c0,0.56,0.04,3.1,2.02,5.17
		c1.94,2.03,4.4,2.21,5.19,2.25c2.58,0.14,4.43-1,5.15-1.46c2.29-1.46,3.3-3.51,3.65-4.34c0.19,0.72,0.76,2.55,2.49,4.08
		c0.45,0.4,2.35,1.99,5.25,2.04c2.92,0.04,4.89-1.58,5.88-2.39c2.05-1.67,3-3.69,3.42-4.8c0,0.44,0.02,3.6,2.62,5.76
		c2.06,1.72,4.41,1.69,5,1.67"/>
</g>
</svg>
