<?xml version="1.0" encoding="utf-8"?>
<!-- Generator: Adobe Illustrator 23.1.1, SVG Export Plug-In . SVG Version: 6.00 Build 0)  -->
<svg version="1.1" id="Layer_1" xmlns="http://www.w3.org/2000/svg" xmlns:xlink="http://www.w3.org/1999/xlink" x="0px" y="0px"
	 viewBox="0 0 70.87 70.87" style="enable-background:new 0 0 70.87 70.87;" xml:space="preserve">
<style type="text/css">
	.st0{fill:none;stroke:#0034E3;stroke-width:0.5;stroke-linecap:round;stroke-linejoin:round;stroke-miterlimit:10;}
</style>
<g>
	<path class="st0" d="M68.93,35.43c0,18.5-15,33.5-33.5,33.5s-33.5-15-33.5-33.5c0-9.53,4.28-16.59,5.6-18.55
		C13.62,7.83,24.3,1.77,35.43,1.93C51.8,2.18,68.93,15.87,68.93,35.43z"/>
	<path class="st0" d="M8.91,15.41c0.79-0.29,4.36,0.23,5.49,0.11c1.06-0.11,1.82-0.04,3.34,0.11c1.4,0.14,1.74,0.28,2,0.56
		c0.53,0.56,0.32,1.25,0.78,1.45c0.36,0.15,0.61-0.23,1.67-0.67c1.12-0.47,1.49-0.31,1.89-0.78c0.27-0.32,0.5-0.87,0.33-1.33
		c-0.22-0.63-1.03-0.7-1-1c0.03-0.27,0.66-0.24,1.56-0.67c1.02-0.48,1.06-0.92,1.89-1.11c0.28-0.07,0.29-0.02,1.33,0
		c1.36,0.03,2.03,0.04,2.45-0.11c0.65-0.24,1.02-0.68,1.67-1.45c0.44-0.52,0.7-0.98,1.22-1.89c0.58-1.01,0.87-1.52,1.11-2.22
		c0.25-0.74,0.33-1.33,0.44-2.22c0.1-0.77,0.14-1.43,0.16-1.91"/>
	<path class="st0" d="M45.94,3.89c-0.07,0.59-0.34,2.69-0.41,3.28l0,0c-0.14,0.8-0.7,1.46-1.45,1.67C43.5,9,42.78,8.91,42.33,8.52
		c-0.22-0.2-0.23-0.33-0.36-0.34c-0.45-0.04-1.09,1.49-1.33,3c-0.23,1.44,0,2.33-0.33,2.45c-0.28,0.1-0.72-0.46-1.22-1.11
		c-1-1.28-1.28-2.17-1.56-2.11c-0.26,0.05-0.12,0.81-0.56,1.89c-0.02,0.04-0.32,0.77-0.89,1.45c-0.77,0.91-1.69,1.31-2.78,1.78
		c-1.6,0.68-2.22,0.59-2.78,1.33c-0.12,0.15-0.59,0.78-0.44,1.45c0.12,0.58,0.58,0.59,0.78,1.22c0.16,0.51,0.02,0.98-0.22,1.78
		c-0.3,1-0.57,1.18-0.44,1.45c0.32,0.68,2.38,0.25,2.45,0.56c0.06,0.28-1.68,0.57-1.78,1.33c-0.04,0.35,0.38,0.72,1.22,1.45
		c0.63,0.54,1.25,1.06,2.22,1.56c0.05,0.03,0.7,0.28,2,0.78c0.84,0.33,1.27,0.49,1.56,0.44c0.78-0.12,0.81-0.8,1.67-1.22
		c1.16-0.57,1.88,0.31,2.67-0.22c0.82-0.55,0.14-1.55,1.11-2.89c0.65-0.9,1.24-0.84,1.78-1.89c0.4-0.78,0.41-1.45,0.56-1.45
		c0.28,0.01,0.02,2.51,0.78,2.78c0.9,0.33,2.39-2.76,3.23-2.45c0.6,0.23,0.58,2.09,0.56,3.78c-0.02,1.52-0.19,1.79,0.11,2.22
		c0.49,0.72,1.31,0.51,3.23,1.45c0.89,0.44,1.34,0.65,1.45,1c0.37,1.21-2.41,2.64-2,3.67c0.18,0.46,0.89,0.62,1.11,0.67
		c1.01,0.23,1.59-0.42,2-0.11c0.21,0.16,0.21,0.45,0.11,1.89c-0.13,1.91-0.19,2.31,0.11,2.67c0.29,0.36,0.74,0.44,1.33,0.56
		c0.93,0.18,1.2-0.1,2,0c1.05,0.13,1.8,0.75,2.11,1c1.07,0.88,1.07,1.68,1.78,1.78c0.13,0.02,0.42,0.03,1.45-0.67
		c0.79-0.54,3.31-2.34,3.78-2.81"/>
	<path class="st0" d="M2.6,28.9c0.48,0.1,2.73,0.23,3.56,0.52c1.2,0.43,1.11,0.58,2.67,1.22c1.32,0.55,1.73,0.59,2.11,1.11
		c0.26,0.35,0.89,1.48,0.67,1.11c-1.21,0.78-1.39,1.09-1.33,1.22c0.1,0.24,0.89-0.07,2,0.11c0.86,0.14,1.03,0.44,2.56,1.22
		c2.04,1.05,2.13,0.73,2.78,1.33c0.85,0.8,1.27,1.9,1.56,2.67c0.41,1.08,0.46,1.78,0.67,1.78c0.24,0,0.25-0.9,0.78-2.34
		c0.47-1.29,0.78-1.46,1.33-3c0.31-0.87,0.47-1.31,0.44-1.67c-0.03-0.45-0.18-0.84-2-3c0,0-0.81-0.96-1.78-2.45
		c-0.41-0.62-0.54-0.88-0.44-1.11c0.21-0.51,1.26-0.22,3-0.67c0.76-0.2,1.6-0.42,2.34-1.11c0.61-0.57,1.26-1.56,1-1.89
		c-0.25-0.32-1.19,0.17-4.45,1.45c-3.09,1.21-0.69,0.17-4.89,1.67c-1.38,0.49-2.11,0.78-2.89,0.44c-0.21-0.09-0.74-0.36-1.56-2
		c-0.62-1.24-0.95-2.35-1.56-4.89C9,19.9,8.26,17.39,8,16.21"/>
	<path class="st0" d="M20.51,42.88c0.03-0.18,0.19-0.4,1.78-1c1.25-0.47,1.56-0.49,1.67-0.78c0.23-0.6-0.84-1.15-0.67-1.89
		c0.14-0.61,0.92-0.46,1.78-1.33c0.9-0.92,0.73-1.77,1.45-2c0.64-0.2,1.14,0.37,1.45,0.11c0.45-0.38-0.44-1.72,0-2.11
		c0.3-0.26,1.03,0.05,1.45,0.33c0.46,0.31,0.58,0.61,1.33,1.78c0.87,1.35,1.08,1.52,1.33,1.56c0.43,0.06,0.56-0.3,1.45-0.67
		c0.38-0.16,1.54-0.64,2-0.22c0.48,0.43-0.22,1.44,0.22,1.89c0.63,0.65,2.85-0.62,3-0.33c0.14,0.24-1.61,1.01-1.67,2.22
		c-0.03,0.57,0.33,1.04,1,1.89c0.97,1.24,1.5,1.29,1.56,1.89c0.08,0.82-0.79,1.74-1.67,2.11c-1.08,0.46-1.8-0.06-2.22,0.44
		c-0.46,0.55,0.01,1.63,0.22,2.11c0.13,0.3,0.68,1.56,1.45,1.56c0.55,0,0.82-0.65,1-0.56c0.27,0.14,0.11,1.79-0.89,3.11
		c-0.68,0.89-1.74,1.65-2.56,2.22c-0.38,0.27-0.82,0.55-1.22,1.11c-0.16,0.22-0.86,1.18-0.56,1.67c0.34,0.54,1.62-0.03,2,0.56
		c0.25,0.38-0.21,0.73,0,1.45c0.16,0.57,0.62,0.92,1,1.22c0,0,0.24,0.19,1.33,0.78l0,0c0,0-0.62,0.91-0.44,1.45
		c0.22,0.71,1.75,0.56,1.78,0.89c0.03,0.35-1.66,1.09-3.45,0.89c-0.54-0.06-1.62-0.19-2.45-1c-0.54-0.54-0.73-1.14-1.11-2.34
		c-0.48-1.53-0.26-1.86-0.78-2.56c-0.58-0.77-1.15-0.76-1.22-1.33c-0.07-0.58,0.5-0.78,0.67-1.78c0.03-0.2,0.17-1.06-0.22-1.33
		c-0.4-0.27-0.9,0.33-1.33,0.11c-0.47-0.24-0.29-1.14-0.44-3c-0.12-1.35-0.18-2.03-0.56-2.34c-0.63-0.52-1.31,0.16-3,0
		c-1.26-0.12-2.13-0.62-3-1.11c-0.94-0.53-1.71-0.97-1.78-1.67c-0.03-0.24,0.13-0.64,0.44-1.45c0.34-0.87,0.48-0.99,0.44-1.33
		C21,43.43,20.43,43.29,20.51,42.88z"/>
</g>
</svg>
