<?xml version="1.0" encoding="utf-8"?>
<!-- Generator: Adobe Illustrator 23.1.1, SVG Export Plug-In . SVG Version: 6.00 Build 0)  -->
<svg version="1.1" id="Layer_1" xmlns="http://www.w3.org/2000/svg" xmlns:xlink="http://www.w3.org/1999/xlink" x="0px" y="0px"
	 viewBox="0 0 70.87 70.87" style="enable-background:new 0 0 70.87 70.87;" xml:space="preserve">
<style type="text/css">
	.st0{fill:none;stroke:#0034E3;stroke-width:0.5;stroke-miterlimit:10;}
	.st1{fill:none;stroke:#0034E3;stroke-width:0.5;stroke-linecap:round;stroke-linejoin:round;stroke-miterlimit:10;}
</style>
<g>
	<path class="st0" d="M61.14,59.31H9.73c-2.7,0-4.88-2.19-4.88-4.88V24.11c0-2.7,2.19-4.88,4.88-4.88h51.42
		c2.7,0,4.88,2.19,4.88,4.88v30.32C66.03,57.13,63.85,59.31,61.14,59.31z"/>
	<circle class="st0" cx="35.43" cy="39.27" r="14.12"/>
	<circle class="st0" cx="35.43" cy="39.31" r="7.47"/>
	<path class="st0" d="M47.38,19.22l0.05-5.37c0.01-1.2-0.96-2.18-2.16-2.18l-19.63-0.1c-1.19-0.01-2.16,0.95-2.17,2.14l-0.05,5.51
		H47.38z"/>
	<line class="st1" x1="54.02" y1="25.26" x2="59.64" y2="25.26"/>
</g>
</svg>
